<?xml version="1.0" encoding="UTF-8" ?>
<!DOCTYPE svg PUBLIC "-//W3C//DTD SVG 1.1//EN" "http://www.w3.org/Graphics/SVG/1.1/DTD/svg11.dtd">
<svg width="456pt" height="229pt" viewBox="0 0 456 229" version="1.1" xmlns="http://www.w3.org/2000/svg">
<g id="#45eeffff">
<path fill="#45eeff" opacity="1.00" d=" M 47.18 41.32 C 50.08 39.94 56.84 39.32 56.74 44.03 C 56.76 93.05 56.75 142.07 56.75 191.09 C 57.20 193.78 54.08 194.77 51.95 194.55 C 49.56 194.80 45.92 194.26 46.51 191.02 C 46.47 142.67 46.54 94.32 46.48 45.96 C 46.65 44.44 46.14 42.61 47.18 41.32 Z" />
<path fill="#45eeff" opacity="1.00" d=" M 397.28 41.35 C 399.47 39.89 402.42 40.48 404.90 40.73 C 406.48 40.90 406.69 42.79 406.74 44.04 C 406.76 93.03 406.76 142.03 406.74 191.03 C 407.02 195.13 401.88 194.74 399.11 194.41 C 397.23 194.41 396.29 192.71 396.51 191.01 C 396.47 142.68 396.54 94.34 396.48 46.01 C 396.66 44.47 396.06 42.58 397.28 41.35 Z" />
<path fill="#45eeff" opacity="1.00" d=" M 105.24 100.40 C 108.19 100.02 113.65 99.52 113.23 104.02 C 113.28 132.68 113.22 161.33 113.26 189.99 C 113.28 191.42 113.17 193.13 111.86 194.02 C 109.70 194.70 107.36 194.64 105.13 194.36 C 103.04 194.07 102.69 191.76 102.75 190.05 C 102.74 161.67 102.76 133.29 102.74 104.91 C 102.65 103.14 103.04 100.59 105.24 100.40 Z" />
<path fill="#45eeff" opacity="1.00" d=" M 342.35 100.46 C 344.94 100.17 349.87 99.27 350.20 102.99 C 350.30 132.33 350.24 161.68 350.24 191.02 C 350.80 193.59 348.13 194.80 345.98 194.54 C 343.62 194.73 339.51 194.45 340.02 191.10 C 339.99 162.04 339.99 132.97 340.02 103.91 C 339.84 102.38 340.65 100.59 342.35 100.46 Z" />
<path fill="#45eeff" opacity="1.00" d=" M 160.49 143.66 C 162.45 142.55 164.87 142.98 167.02 143.10 C 169.39 143.36 169.91 146.04 169.77 148.00 C 169.66 162.55 169.92 177.12 169.64 191.67 C 169.45 194.99 165.34 194.58 162.97 194.51 C 160.97 194.70 158.94 193.14 159.26 191.03 C 159.22 176.69 159.28 162.34 159.23 148.00 C 159.33 146.53 158.95 144.53 160.49 143.66 Z" />
<path fill="#45eeff" opacity="1.00" d=" M 286.18 143.12 C 288.11 142.89 290.11 142.83 292.02 143.25 C 294.03 143.84 293.97 146.24 294.01 147.94 C 293.99 161.99 294.01 176.05 294.00 190.11 C 294.16 192.07 293.35 194.58 290.93 194.43 C 288.45 194.52 284.23 195.26 283.59 191.96 C 283.38 176.99 283.54 162.01 283.51 147.04 C 283.32 145.25 284.18 143.23 286.18 143.12 Z" />
</g>
<g id="#1d1e1cfe">
<path fill="#1d1e1c" opacity="1.00" d=" M 223.44 172.69 C 229.30 170.41 236.54 175.57 235.53 181.99 C 235.47 189.44 225.17 193.07 220.24 187.67 C 215.44 183.38 217.46 174.76 223.44 172.69 Z" />
</g>
</svg>
