<?xml version="1.0" encoding="UTF-8" standalone="no"?>
<!-- Created with Inkscape (http://www.inkscape.org/) -->

<svg
   xmlns:osb="http://www.openswatchbook.org/uri/2009/osb"
   xmlns:dc="http://purl.org/dc/elements/1.1/"
   xmlns:cc="http://creativecommons.org/ns#"
   xmlns:rdf="http://www.w3.org/1999/02/22-rdf-syntax-ns#"
   xmlns:svg="http://www.w3.org/2000/svg"
   xmlns="http://www.w3.org/2000/svg"
   xmlns:xlink="http://www.w3.org/1999/xlink"
   xmlns:sodipodi="http://sodipodi.sourceforge.net/DTD/sodipodi-0.dtd"
   xmlns:inkscape="http://www.inkscape.org/namespaces/inkscape"
   version="1.0"
   width="708.66156"
   height="871.61316"
   id="svg5994"
   inkscape:version="0.48.4 r9939"
   sodipodi:docname="dwd.svg">
  <metadata
     id="metadata20">
    <rdf:RDF>
      <cc:Work
         rdf:about="">
        <dc:format>image/svg+xml</dc:format>
        <dc:type
           rdf:resource="http://purl.org/dc/dcmitype/StillImage" />
      </cc:Work>
    </rdf:RDF>
  </metadata>
  <sodipodi:namedview
     pagecolor="#ffffff"
     bordercolor="#666666"
     borderopacity="1"
     objecttolerance="10"
     gridtolerance="10"
     guidetolerance="10"
     inkscape:pageopacity="0"
     inkscape:pageshadow="2"
     inkscape:window-width="1920"
     inkscape:window-height="1017"
     id="namedview18"
     showgrid="false"
     inkscape:zoom="0.54152464"
     inkscape:cx="-178.03404"
     inkscape:cy="611.4846"
     inkscape:window-x="-8"
     inkscape:window-y="-8"
     inkscape:window-maximized="1"
     inkscape:current-layer="svg5994" />
  <defs
     id="defs5996">
    <linearGradient
       id="linearGradient3821"
       osb:paint="solid">
      <stop
         style="stop-color:#ffffff;stop-opacity:1;"
         offset="0"
         id="stop3823" />
    </linearGradient>
    <linearGradient
       id="linearGradient3815"
       osb:paint="solid">
      <stop
         style="stop-color:#000000;stop-opacity:1;"
         offset="0"
         id="stop3817" />
    </linearGradient>
    <linearGradient
       inkscape:collect="always"
       xlink:href="#linearGradient3821"
       id="linearGradient3833"
       gradientUnits="userSpaceOnUse"
       gradientTransform="translate(0,3.4235454)"
       x1="315.6936"
       y1="64.401646"
       x2="668.46852"
       y2="64.401646" />
    <linearGradient
       inkscape:collect="always"
       xlink:href="#linearGradient3821"
       id="linearGradient3842"
       gradientUnits="userSpaceOnUse"
       gradientTransform="translate(0,3.4235454)"
       x1="315.6936"
       y1="64.401646"
       x2="668.46852"
       y2="64.401646" />
    <linearGradient
       inkscape:collect="always"
       xlink:href="#linearGradient3821"
       id="linearGradient3844"
       gradientUnits="userSpaceOnUse"
       gradientTransform="translate(0,3.4235454)"
       x1="315.6936"
       y1="64.401646"
       x2="668.46852"
       y2="64.401646" />
    <linearGradient
       inkscape:collect="always"
       xlink:href="#linearGradient3821"
       id="linearGradient3846"
       gradientUnits="userSpaceOnUse"
       gradientTransform="translate(0,3.4235454)"
       x1="315.6936"
       y1="64.401646"
       x2="668.46852"
       y2="64.401646" />
    <linearGradient
       inkscape:collect="always"
       xlink:href="#linearGradient3821"
       id="linearGradient3848"
       gradientUnits="userSpaceOnUse"
       gradientTransform="translate(0,3.4235454)"
       x1="315.6936"
       y1="64.401646"
       x2="668.46852"
       y2="64.401646" />
    <linearGradient
       inkscape:collect="always"
       xlink:href="#linearGradient3821"
       id="linearGradient3851"
       gradientUnits="userSpaceOnUse"
       gradientTransform="matrix(0.85588636,0,0,1.1683794,0,3.9999999)"
       x1="315.6936"
       y1="64.401646"
       x2="668.46852"
       y2="64.401646" />
    <linearGradient
       inkscape:collect="always"
       xlink:href="#linearGradient3821"
       id="linearGradient3854"
       gradientUnits="userSpaceOnUse"
       gradientTransform="matrix(0.85588636,0,0,1.1683794,0,3.9999999)"
       x1="315.6936"
       y1="64.401646"
       x2="668.46852"
       y2="64.401646" />
    <linearGradient
       inkscape:collect="always"
       xlink:href="#linearGradient3821"
       id="linearGradient3857"
       gradientUnits="userSpaceOnUse"
       gradientTransform="matrix(0.85588636,0,0,1.1683794,0,3.9999999)"
       x1="315.6936"
       y1="64.401646"
       x2="668.46852"
       y2="64.401646" />
  </defs>
  <path
     style="fill:#2056ad;fill-rule:nonzero;stroke:#2056ad;stroke-width:0.00002448;stroke-linecap:butt;stroke-linejoin:miter;stroke-miterlimit:3.86400008;stroke-dasharray:none"
     d="M 259.53125 0 L 257.0625 7.34375 L 257.0625 313.375 C 266.85592 308.47829 274.20659 303.58421 284 298.6875 C 303.58683 286.44563 323.18366 276.67917 345.21875 264.4375 C 347.6672 261.98924 350.11405 261.96875 352.5625 261.96875 C 372.14933 259.5203 391.72587 254.63575 411.3125 252.1875 L 421.125 252.1875 C 443.16028 252.1875 462.72567 252.1658 482.3125 257.0625 L 484.78125 254.625 C 489.67795 259.52171 497.00955 257.07204 501.90625 261.96875 C 509.25141 261.96875 514.14408 269.33279 523.9375 271.78125 C 526.38575 274.2295 533.72829 271.75974 538.625 276.65625 C 541.07325 281.55295 553.32204 279.11425 558.21875 281.5625 C 560.667 288.90766 568.03003 286.4578 575.375 288.90625 L 580.25 296.25 L 582.71875 296.25 L 582.71875 0 L 259.53125 0 z M 270.1875 14.15625 L 305.40625 14.15625 C 313.3433 14.156379 319.36747 14.967311 323.53125 16.625 C 329.12619 18.87502 333.94718 22.881967 337.9375 28.625 C 341.92765 34.368264 344.9493 41.400161 347.03125 49.71875 C 349.11302 58.037529 350.15616 68.303274 350.15625 80.5 C 350.15616 91.21666 349.17041 100.43133 347.21875 108.1875 C 344.8332 117.66078 341.42388 125.32595 337 131.1875 C 333.66027 135.62809 329.15043 139.10703 323.46875 141.59375 C 319.21822 143.42919 313.55048 144.34375 306.4375 144.34375 L 270.1875 144.34375 L 270.1875 14.15625 z M 357.3125 14.15625 L 377.03125 14.15625 L 391.40625 103.59375 L 408.84375 14.15625 L 431.75 14.15625 L 448.46875 105.09375 L 463.09375 14.15625 L 482.46875 14.15625 L 459.3125 144.34375 L 438.90625 144.34375 L 419.90625 47 L 400.96875 144.34375 L 380.09375 144.34375 L 357.3125 14.15625 z M 492.1875 14.15625 L 527.375 14.15625 C 535.31205 14.156379 541.36747 14.967311 545.53125 16.625 C 551.12619 18.87502 555.91594 22.881967 559.90625 28.625 C 563.89641 34.368264 566.91806 41.400161 569 49.71875 C 571.08178 58.037529 572.12491 68.303274 572.125 80.5 C 572.12491 91.21666 571.17041 100.43133 569.21875 108.1875 C 566.8332 117.66078 563.42388 125.32595 559 131.1875 C 555.66027 135.62809 551.15043 139.10703 545.46875 141.59375 C 541.21822 143.42919 535.51923 144.34375 528.40625 144.34375 L 492.1875 144.34375 L 492.1875 14.15625 z M 289.46875 36.1875 L 289.46875 122.40625 L 303.84375 122.40625 C 309.22185 122.40628 313.08323 121.98518 315.46875 121.15625 C 318.59148 120.09052 321.18976 118.29596 323.25 115.75 C 325.31011 113.2041 326.98002 109.0195 328.28125 103.1875 C 329.58234 97.355583 330.24994 89.409127 330.25 79.34375 C 330.24994 69.278502 329.58234 61.54424 328.28125 56.15625 C 326.98002 50.768436 325.18578 46.550944 322.84375 43.53125 C 320.5016 40.511757 317.50608 38.472096 313.90625 37.40625 C 311.21713 36.57745 305.94406 36.187607 298.09375 36.1875 L 289.46875 36.1875 z M 511.4375 36.1875 L 511.4375 122.40625 L 525.8125 122.40625 C 531.1906 122.40628 535.08323 121.98518 537.46875 121.15625 C 540.59149 120.09052 543.15851 118.29596 545.21875 115.75 C 547.27886 113.2041 548.98001 109.0195 550.28125 103.1875 C 551.58234 97.355583 552.21868 89.409127 552.21875 79.34375 C 552.21868 69.278502 551.58234 61.54424 550.28125 56.15625 C 548.98001 50.768436 547.15453 46.550944 544.8125 43.53125 C 542.47035 40.511757 539.50608 38.472096 535.90625 37.40625 C 533.21712 36.57745 527.94406 36.187607 520.09375 36.1875 L 511.4375 36.1875 z "
     id="path4928" />
  <path
     d="m 323.1823,48.96707 c 7.34497,22.03528 9.79342,56.31204 -9.79341,71.00216 -7.34516,2.44845 -14.69012,0 -22.03509,2.44845 l 0,-83.24402 c 12.24167,0 26.9318,-2.44826 31.8285,9.79341 z"
     style="fill:#2056ad;fill-rule:nonzero;stroke:#2056ad;stroke-width:0.00002448;stroke-linecap:butt;stroke-linejoin:miter;stroke-miterlimit:3.86400008;stroke-dasharray:none"
     id="path4936"
     inkscape:connector-curvature="0" />
  <path
     style="fill:#2056ad;fill-rule:evenodd;stroke:#2056ad;stroke-width:0.00002448;stroke-linecap:butt;stroke-linejoin:miter;stroke-miterlimit:3.86400008;stroke-dasharray:none"
     d="M 404.0625 298.1875 C 403.27825 298.22576 402.44939 298.38144 401.53125 298.6875 C 394.18628 301.13576 381.94966 303.583 372.15625 306.03125 C 355.01767 313.37641 332.97137 315.83159 318.28125 325.625 C 313.38454 328.07345 308.49046 330.54079 303.59375 335.4375 C 291.35208 342.78266 279.11667 350.12359 266.875 357.46875 C 264.42654 359.91701 259.51076 362.3547 257.0625 359.90625 L 257.0625 318.28125 L 254.625 318.28125 C 249.72829 318.28125 244.8342 320.7283 239.9375 325.625 C 237.48924 330.52171 232.59516 335.42655 225.25 337.875 C 203.21492 359.91009 183.61667 386.82755 171.375 418.65625 C 164.02984 440.69133 151.80175 462.74495 154.25 492.125 C 161.59516 487.22829 161.59253 497.01076 168.9375 494.5625 C 173.8342 492.11405 176.27049 499.45799 178.71875 501.90625 C 181.1672 504.3547 186.0625 506.82204 186.0625 511.71875 C 181.16579 514.1672 173.8342 511.69825 168.9375 509.25 C 166.48924 506.80154 166.49046 501.90625 161.59375 501.90625 C 154.24859 506.80295 156.6875 521.50955 156.6875 526.40625 L 156.6875 536.1875 C 166.48092 555.77433 178.73783 575.35067 188.53125 594.9375 C 188.53125 597.38576 186.08299 599.833 188.53125 602.28125 C 195.8764 602.28125 195.85329 609.64549 200.75 612.09375 C 203.19826 612.09375 203.21875 617 203.21875 617 C 203.21875 619.44845 208.11425 616.98905 210.5625 619.4375 C 213.01095 643.92103 235.03817 658.59234 254.625 665.9375 L 254.625 624.34375 L 257.0625 624.34375 C 271.75262 636.58543 288.89287 643.90503 306.03125 651.25 C 325.61808 658.59496 350.11022 658.6045 374.59375 656.15625 C 401.52555 648.81128 428.45397 639.01358 452.9375 621.875 C 467.62763 607.18488 472.53003 587.61808 479.875 568.03125 C 484.77171 550.89287 477.42796 533.75262 472.53125 519.0625 C 465.1861 499.47567 452.95228 474.96875 428.46875 474.96875 C 423.57204 477.41701 421.10451 472.5203 418.65625 474.96875 C 408.86284 472.5203 403.97016 477.41579 396.625 482.3125 C 391.72849 484.76095 389.28125 492.12359 389.28125 499.46875 C 394.17795 506.81371 401.52984 506.8125 408.875 506.8125 C 411.32325 506.8125 411.3125 509.2705 411.3125 511.71875 C 416.20921 519.06391 421.10451 526.39408 418.65625 536.1875 C 411.31109 545.98091 399.08542 553.32223 386.84375 558.21875 C 377.05034 565.5639 359.90887 563.125 345.21875 563.125 C 330.52863 558.2283 320.71996 545.99167 313.375 533.75 C 306.02984 523.95659 308.5 509.25263 308.5 494.5625 C 310.94826 482.32064 315.84234 472.54322 323.1875 462.75 C 325.63576 445.61143 345.22829 443.15887 350.125 428.46875 C 362.36686 423.57204 374.60188 416.2092 386.84375 411.3125 C 394.18871 413.76095 399.09253 406.42655 406.4375 408.875 C 411.3342 411.32326 408.86425 403.96875 411.3125 403.96875 L 440.6875 403.96875 C 472.51619 406.41701 494.56942 428.46491 514.15625 450.5 C 528.84637 472.53508 543.53125 497.02601 543.53125 526.40625 L 543.53125 536.1875 C 543.53125 558.22259 536.19967 580.26787 526.40625 597.40625 C 514.16458 619.44153 494.56512 634.11162 479.875 651.25 C 470.08158 665.94012 452.95107 673.29079 435.8125 678.1875 C 426.01909 680.63595 418.65766 685.54079 411.3125 690.4375 C 394.17412 690.4375 377.03388 695.32205 362.34375 700.21875 C 359.8953 697.7703 355 700.2297 355 697.78125 C 352.55175 692.88454 347.6672 697.792 345.21875 695.34375 C 340.32204 700.24045 335.417 692.875 332.96875 692.875 C 313.38192 695.32346 298.69013 687.97951 284 685.53125 C 274.20659 680.63454 261.95921 680.62641 257.0625 673.28125 C 254.61405 673.28125 254.625 675.75 254.625 675.75 L 254.625 807.96875 L 257.0625 807.96875 L 293.8125 807.96875 C 301.15746 805.5205 293.80034 817.76076 303.59375 815.3125 C 320.73213 810.41579 325.62238 827.54079 340.3125 832.4375 C 342.76095 829.98924 345.21875 829.9797 345.21875 827.53125 C 342.77049 825.083 342.78125 822.65625 342.78125 822.65625 C 342.78125 820.208 345.2078 820.1875 347.65625 820.1875 C 367.24308 817.73905 384.39287 812.85451 401.53125 810.40625 C 406.42796 805.50955 416.21734 805.5 423.5625 805.5 C 433.35591 805.5 440.69704 800.61546 445.59375 795.71875 C 487.21586 795.71875 519.03555 778.56513 553.3125 763.875 C 565.55417 758.9783 570.45659 744.31391 580.25 736.96875 C 582.69826 736.96875 580.27049 741.84375 582.71875 741.84375 L 582.71875 759 C 582.71875 761.44845 580.27049 766.333 582.71875 768.78125 C 580.27049 768.78125 580.27049 771.21875 582.71875 771.21875 L 582.71875 783.46875 C 585.1672 783.46875 585.15625 783.4795 585.15625 781.03125 C 592.50121 776.13454 599.83158 768.77171 609.625 763.875 C 624.31512 749.18488 634.11284 729.60733 643.90625 712.46875 C 643.90625 697.77863 651.24859 687.99167 658.59375 675.75 C 661.04201 665.95658 665.93607 658.59496 673.28125 651.25 C 675.72945 641.45658 680.64545 634.13717 683.09375 624.34375 C 680.64545 607.20518 690.44705 594.94012 695.34375 580.25 L 695.34375 555.78125 C 695.34375 555.78125 697.79195 553.3125 695.34375 553.3125 C 700.24045 541.07064 702.6765 531.29341 705.125 521.5 C 710.0217 514.15503 705.1143 504.35592 707.5625 494.5625 C 705.1143 489.6658 710.011 484.76095 707.5625 482.3125 C 702.6658 479.86424 707.5625 477.4375 707.5625 477.4375 C 710.011 474.98924 707.5625 472.542 707.5625 470.09375 C 705.1143 467.64529 702.6875 465.19826 702.6875 462.75 C 700.2393 460.30155 705.136 460.292 702.6875 457.84375 C 697.7908 457.84375 700.21875 450.49046 700.21875 445.59375 C 695.32205 443.14549 695.34375 438.24046 695.34375 433.34375 C 692.89525 435.792 692.8857 435.8125 690.4375 435.8125 C 687.989 430.9158 690.4268 428.44845 692.875 426 L 678.1875 403.96875 L 675.75 399.09375 C 675.75 394.19705 668.40625 394.17796 668.40625 389.28125 C 670.85445 381.93609 665.94826 381.92796 663.5 377.03125 C 646.36143 357.44462 631.68058 335.43058 612.09375 315.84375 C 607.19705 313.39549 599.8547 313.39671 597.40625 308.5 C 590.06129 310.94826 594.94846 301.15625 592.5 301.15625 C 587.6033 301.15625 585.15625 298.70799 585.15625 301.15625 C 582.7078 328.08823 582.71875 355.01646 582.71875 379.5 C 570.47708 369.70658 555.77292 364.79341 543.53125 355 C 541.08279 352.55174 536.17796 350.125 531.28125 350.125 C 519.03958 337.88333 506.81512 330.53246 492.125 323.1875 C 467.64166 313.39408 440.69134 310.94966 418.65625 301.15625 C 412.22923 303.29864 409.55222 297.91966 404.0625 298.1875 z M 254.625 369.6875 L 254.625 621.875 C 252.17674 621.875 249.71875 619.4375 249.71875 619.4375 C 220.33851 594.95396 203.19967 563.10975 193.40625 531.28125 C 186.06129 521.48784 188.53125 504.36687 188.53125 492.125 C 190.9797 470.08992 200.78003 452.93058 208.125 433.34375 C 208.125 430.8953 205.66579 428.46875 210.5625 428.46875 C 222.80437 406.43347 237.48662 386.82588 254.625 369.6875 z M 582.71875 384.40625 C 585.1672 384.40625 587.61405 386.8328 590.0625 389.28125 C 614.54604 416.21304 631.67533 448.05604 641.46875 484.78125 C 639.02049 494.57466 641.4578 509.26909 643.90625 519.0625 C 643.90625 548.44275 646.35451 577.80847 643.90625 599.84375 C 634.11284 643.91411 616.97258 680.64979 594.9375 717.375 C 590.04079 719.82345 587.60451 724.69704 585.15625 729.59375 L 582.71875 384.40625 z "
     id="path4940" />
  <path
     d="m 78.34712,435.80657 c -2.44825,7.34516 4.89671,9.79342 2.44846,14.69013 -4.89671,2.44845 -9.79342,2.44845 -12.24187,7.34516 2.44845,4.8967 -9.79342,9.79321 0,12.24167 0,2.44825 -2.44826,4.8967 -2.44826,7.34496 -2.44845,0 -4.8967,-2.44826 -4.8967,0 -7.34516,4.89671 -4.89671,17.13857 -7.34516,24.48354 2.44845,4.8967 7.34516,-2.44826 7.34516,4.8967 2.44825,4.89671 0,12.24187 -2.44846,17.13858 -2.44825,9.79341 -2.44825,24.48354 0,36.72521 0,0 2.44846,0 2.44846,2.44825 4.8967,31.8287 14.69012,61.20894 24.48353,93.03745 2.44826,7.34496 7.34497,14.69012 14.69013,17.13837 0,17.13858 9.79341,31.8287 22.03508,39.17366 4.89671,7.34516 2.44826,17.13858 7.34497,22.03529 7.34515,12.24167 19.58683,24.48334 31.82869,31.8285 7.34497,4.8967 2.44826,12.24167 2.44826,19.58683 0,4.8967 -7.34497,2.44825 -9.79342,7.34496 -17.13838,0 -29.38024,-4.89671 -36.72521,-12.24167 -9.79341,-9.79342 -24.48353,-14.69012 -31.8285,-26.93199 C 71.00216,729.60883 46.51862,712.47025 34.27676,685.53846 24.48334,673.29659 17.13838,658.60647 12.24167,643.91654 7.34496,629.22642 2.44826,614.5363 0,597.39773 c 0,-4.89671 0,-9.79342 0,-12.24168 0,-7.34515 0,-17.13857 0,-26.93198 0,-12.24168 4.89671,-19.58664 9.79342,-29.38005 4.8967,-2.44846 2.44825,-9.79342 7.34496,-12.24187 4.89671,-9.79342 14.69012,-12.24167 17.13838,-22.03509 2.44845,-2.44845 0,-9.79341 4.8967,-9.79341 7.34516,0 4.89671,-9.79342 7.34516,-12.24187 7.34497,-14.68992 19.58683,-22.03508 26.9318,-36.72521 0,0 4.8967,-2.44825 4.8967,0 z"
     style="fill:#2056ad;fill-rule:nonzero;stroke:#2056ad;stroke-width:0.00002448;stroke-linecap:butt;stroke-linejoin:miter;stroke-miterlimit:3.86400008;stroke-dasharray:none"
     id="path4946"
     inkscape:connector-curvature="0" />
  <path
     d="m 582.70741,871.61315 -328.07901,0 c -2.44826,-14.69012 -2.44826,-24.48354 0,-39.17366 2.44845,-2.44826 7.34516,0 12.24187,2.44845 2.44825,2.44826 9.79341,2.44826 12.24167,4.89671 9.79341,0 14.69012,7.34496 24.48353,4.89651 12.24167,-2.44826 22.03509,-9.79322 36.72521,-12.24167 2.44845,0 4.89671,0 7.34516,2.44845 0,9.79322 9.79342,7.34496 17.13838,9.79322 14.69012,7.34516 36.72521,4.89671 53.86378,4.89671 17.13838,-2.44826 31.8285,-7.34497 46.51863,-12.24167 22.03528,-7.34497 41.62191,-12.24167 63.65719,-19.58683 7.34497,-7.34497 19.58683,-9.79342 26.9318,-14.69013 4.8967,-7.34496 9.79341,-12.24167 17.13857,-14.69012 2.44826,0 7.34496,-7.34496 9.79322,-7.34496 l 0,90.58899 z"
     style="fill:#2056ad;fill-rule:nonzero;stroke:#2056ad;stroke-width:0.00002448;stroke-linecap:butt;stroke-linejoin:miter;stroke-miterlimit:3.86400008;stroke-dasharray:none"
     id="path4948"
     inkscape:connector-curvature="0" />
  <path
     d="m 183.62624,788.36912 c 2.44845,2.44845 4.89671,0 7.34516,2.44845 12.24167,-2.44845 29.38005,-2.44845 34.27675,12.24167 2.44846,2.44846 0,9.79342 4.89671,12.24187 7.34516,0 14.69012,-7.34516 24.48354,-4.89671 0,7.34497 0,14.69013 -2.44826,19.58683 -4.8967,-2.44845 -9.79341,-2.44845 -14.69012,-7.34516 -4.89671,0 -7.34516,4.89671 -12.24187,4.89671 -9.79341,0 -24.48334,2.44845 -34.27675,-2.44825 -9.79342,-7.34516 -19.58683,-12.24187 -26.93199,-19.58683 0,-7.34516 4.89671,-9.79342 7.34516,-14.69013 4.8967,-2.44845 7.34496,-2.44845 12.24167,-2.44845 z"
     style="fill:#2056ad;fill-rule:nonzero;stroke:#2056ad;stroke-width:0.00002448;stroke-linecap:butt;stroke-linejoin:miter;stroke-miterlimit:3.86400008;stroke-dasharray:none"
     id="path4950"
     inkscape:connector-curvature="0" />
  <flowRoot
     xml:space="preserve"
     id="flowRoot3035"
     style="fill:black;stroke:none;stroke-opacity:1;stroke-width:1px;stroke-linejoin:miter;stroke-linecap:butt;fill-opacity:1;font-family:Sans;font-style:normal;font-weight:normal;font-size:40px;line-height:125%;letter-spacing:0px;word-spacing:0px"><flowRegion
       id="flowRegion3037"><rect
         id="rect3039"
         width="286.22891"
         height="121.87811"
         x="282.53561"
         y="59.092419" /></flowRegion><flowPara
       id="flowPara3041"></flowPara></flowRoot></svg>
