<?xml version="1.0" encoding="UTF-8" ?>
<!DOCTYPE svg PUBLIC "-//W3C//DTD SVG 1.1//EN" "http://www.w3.org/Graphics/SVG/1.1/DTD/svg11.dtd">
<svg width="1181pt" height="567pt" viewBox="0 0 1181 567" version="1.1" xmlns="http://www.w3.org/2000/svg">
<g id="#45eefffe">
<path fill="#45eeff" opacity="1.00" d=" M 89.89 66.90 C 93.13 66.75 99.78 64.95 99.70 70.06 C 99.81 117.04 99.66 164.02 99.77 211.00 C 99.67 213.75 100.14 216.65 99.21 219.31 C 96.56 221.35 92.94 220.20 89.89 220.08 C 89.34 214.73 89.53 209.36 89.53 204.00 C 89.53 163.67 89.53 123.33 89.53 83.00 C 89.53 77.63 89.34 72.25 89.89 66.90 Z" />
<path fill="#45eeff" opacity="1.00" d=" M 439.91 66.92 C 442.83 66.65 445.87 66.12 448.75 66.99 C 449.73 68.07 449.62 69.63 449.75 70.99 C 449.73 119.33 449.73 167.68 449.75 216.02 C 449.74 217.15 449.57 218.25 449.23 219.33 C 446.54 221.36 442.95 220.20 439.89 220.07 C 439.34 214.73 439.53 209.36 439.53 204.00 C 439.53 166.33 439.53 128.67 439.53 91.00 C 439.68 82.98 439.15 74.93 439.91 66.92 Z" />
<path fill="#45eeff" opacity="1.00" d=" M 146.45 126.51 C 149.48 126.29 152.52 126.30 155.55 126.52 C 156.65 131.95 156.23 137.51 156.27 143.00 C 156.28 167.01 156.25 191.02 156.29 215.03 C 156.22 216.93 156.44 219.98 153.88 220.28 C 151.34 220.48 147.69 221.34 146.08 218.77 C 145.44 215.22 145.77 211.59 145.72 208.00 C 145.73 183.33 145.76 158.66 145.70 133.99 C 145.70 131.47 146.02 128.98 146.45 126.51 Z" />
<path fill="#45eeff" opacity="1.00" d=" M 384.69 126.67 C 387.15 125.94 389.86 126.01 392.31 126.76 C 393.38 128.27 393.20 130.20 393.30 131.95 C 393.23 155.30 393.29 178.65 393.26 202.00 C 393.22 208.00 393.52 214.02 392.88 220.01 C 390.06 220.28 387.07 220.96 384.32 219.95 C 382.79 219.30 383.16 217.35 382.99 216.04 C 383.01 187.67 382.99 159.30 383.00 130.93 C 383.17 129.43 382.85 127.23 384.69 126.67 Z" />
<path fill="#45eeff" opacity="1.00" d=" M 204.28 169.28 C 206.61 168.78 209.17 168.69 211.41 169.60 C 212.97 170.89 212.61 173.14 212.77 174.94 C 212.71 188.31 212.73 201.69 212.76 215.07 C 212.51 216.82 213.15 219.63 210.81 220.11 C 207.90 220.83 202.00 221.38 202.31 216.94 C 202.16 202.94 202.35 188.94 202.22 174.94 C 202.40 173.02 201.80 169.91 204.28 169.28 Z" />
<path fill="#45eeff" opacity="1.00" d=" M 326.99 170.26 C 329.62 167.98 333.41 169.30 336.52 169.48 C 337.55 180.28 336.75 191.16 337.00 202.00 C 336.74 207.81 337.67 213.75 336.41 219.48 C 333.57 221.25 330.07 220.24 326.97 219.99 C 325.99 207.69 326.79 195.33 326.53 183.00 C 326.62 178.76 326.12 174.44 326.99 170.26 Z" />
</g>
<g id="#1d1d1bff">
<path fill="#1d1d1b" opacity="1.00" d=" M 266.46 198.61 C 271.98 196.57 278.84 200.91 278.48 207.00 C 278.83 211.13 275.90 215.09 271.86 215.97 C 267.03 217.40 261.53 213.90 260.73 208.95 C 259.86 204.71 262.49 200.18 266.46 198.61 Z" />
<path fill="#1d1d1b" opacity="1.00" d=" M 393.42 262.50 C 408.62 260.58 424.41 263.60 437.71 271.27 C 455.76 281.53 468.98 300.04 472.39 320.57 C 474.54 333.99 473.16 348.13 467.51 360.56 C 460.63 376.51 447.56 389.63 431.75 396.77 C 417.96 403.02 402.19 404.61 387.40 401.48 C 368.93 397.50 352.25 385.81 342.26 369.78 C 335.15 358.57 331.34 345.29 331.55 332.01 C 331.47 315.93 337.45 300.03 347.69 287.69 C 359.06 273.97 375.71 264.66 393.42 262.50 M 392.35 272.43 C 370.69 275.99 351.93 292.44 345.35 313.34 C 339.66 330.23 341.97 349.51 351.36 364.64 C 359.22 377.57 372.13 387.37 386.77 391.29 C 399.29 394.82 412.96 393.87 424.99 388.99 C 437.90 383.66 448.80 373.68 455.41 361.39 C 464.16 345.03 464.87 324.65 457.38 307.69 C 451.08 293.28 438.92 281.54 424.30 275.73 C 414.20 271.80 403.03 270.57 392.35 272.43 Z" />
<path fill="#1d1d1b" opacity="1.00" d=" M 557.59 262.62 C 567.94 261.11 578.86 262.05 588.40 266.57 C 596.50 270.28 603.25 276.93 606.82 285.12 C 607.48 286.78 608.13 288.65 607.50 290.43 C 605.24 292.39 602.09 292.50 599.28 292.96 C 596.83 288.47 594.83 283.55 590.92 280.09 C 583.69 273.57 573.54 271.21 564.02 271.64 C 555.21 272.15 546.00 275.20 540.13 282.09 C 532.62 290.57 532.37 305.20 540.93 313.06 C 547.84 319.62 557.35 321.91 566.11 324.89 C 572.59 327.11 579.19 328.98 585.57 331.49 C 595.29 335.52 604.38 342.31 609.12 351.92 C 614.94 363.30 612.54 377.83 604.52 387.55 C 597.59 395.97 587.00 400.65 576.40 402.33 C 561.49 404.45 545.34 402.06 532.99 393.02 C 527.30 388.73 522.00 383.41 519.17 376.78 C 517.56 373.03 522.70 372.02 525.35 371.52 C 528.03 370.83 529.17 373.84 530.48 375.54 C 536.68 385.81 548.28 391.92 560.00 393.19 C 573.17 394.67 588.30 391.88 596.81 380.81 C 602.49 373.64 603.62 362.99 599.00 355.00 C 595.01 347.98 588.03 343.25 580.71 340.23 C 569.47 335.81 557.58 333.22 546.43 328.57 C 537.13 324.64 528.24 317.71 525.27 307.66 C 522.56 298.03 523.75 286.97 529.73 278.76 C 536.12 269.65 546.80 264.36 557.59 262.62 Z" />
<path fill="#1d1d1b" opacity="1.00" d=" M 89.64 264.71 C 92.49 263.50 95.63 264.22 98.60 264.44 C 99.74 270.90 99.23 277.47 99.29 284.00 C 99.32 320.34 99.26 356.68 99.33 393.01 C 99.29 395.55 98.98 398.07 98.63 400.58 C 95.65 400.80 92.50 401.46 89.62 400.31 C 88.81 398.68 88.73 396.82 88.67 395.05 C 88.72 355.37 88.72 315.68 88.67 276.00 C 88.83 272.25 88.07 268.24 89.64 264.71 Z" />
<path fill="#1d1d1b" opacity="1.00" d=" M 168.37 264.38 C 171.76 264.10 176.17 263.20 178.27 266.71 C 200.05 296.26 221.76 325.87 243.54 355.43 C 250.07 364.05 256.03 373.13 263.04 381.37 C 263.50 374.92 263.26 368.46 263.29 362.00 C 263.28 330.98 263.33 299.97 263.26 268.95 C 263.36 267.62 263.29 266.19 263.98 265.00 C 266.48 263.47 269.74 263.71 272.44 264.56 C 273.84 265.56 273.57 267.45 273.73 268.96 C 273.69 311.32 273.68 353.68 273.73 396.04 C 273.55 397.52 273.90 399.50 272.40 400.41 C 269.46 401.59 265.47 401.34 263.50 398.55 C 235.06 360.07 206.89 321.35 178.30 282.97 C 178.29 316.65 178.30 350.32 178.30 384.00 C 178.35 389.54 178.55 395.11 177.61 400.60 C 174.54 400.91 171.44 400.92 168.36 400.62 C 167.28 394.13 167.77 387.54 167.71 381.00 C 167.68 344.66 167.74 308.33 167.67 271.99 C 167.71 269.44 168.02 266.91 168.37 264.38 Z" />
<path fill="#1d1d1b" opacity="1.00" d=" M 670.25 264.35 C 689.81 263.55 709.42 264.22 729.00 264.00 C 736.22 264.25 743.50 263.44 750.68 264.37 C 754.18 265.60 752.33 270.19 752.06 272.90 C 748.71 273.17 745.35 273.35 742.00 273.34 C 721.37 273.22 700.74 273.39 680.11 273.24 C 679.96 292.06 679.85 310.88 680.17 329.70 C 693.78 329.48 707.39 329.64 721.00 329.60 C 728.39 329.69 735.79 329.29 743.17 329.94 C 743.29 332.63 743.29 335.34 743.17 338.04 C 735.80 338.72 728.39 338.31 721.00 338.40 C 707.39 338.36 693.78 338.52 680.17 338.30 C 679.84 356.11 679.97 373.94 680.11 391.76 C 696.40 391.64 712.70 391.73 729.00 391.70 C 736.68 391.79 744.39 391.39 752.06 392.10 C 752.38 394.66 753.50 397.59 752.00 399.97 C 749.65 401.44 746.64 400.87 744.00 401.06 C 724.00 400.93 704.00 401.02 684.00 401.01 C 679.81 400.92 675.54 401.43 671.41 400.54 C 669.41 400.08 669.95 397.54 669.70 396.05 C 669.70 357.36 669.70 318.68 669.70 280.00 C 669.64 274.77 669.48 269.53 670.25 264.35 Z" />
<path fill="#1d1d1b" opacity="1.00" d=" M 811.69 265.69 C 813.21 263.20 817.03 263.81 819.42 264.59 C 822.90 267.11 824.86 271.15 827.50 274.46 C 853.91 310.31 880.15 346.28 906.70 382.02 C 906.70 347.68 906.71 313.34 906.70 279.00 C 906.73 275.02 906.44 271.02 906.86 267.04 C 906.94 263.08 912.09 263.88 914.80 264.21 C 917.69 264.47 917.12 267.91 917.33 269.96 C 917.28 311.66 917.27 353.35 917.33 395.04 C 917.15 396.77 917.42 398.78 916.33 400.26 C 913.16 401.67 908.80 401.37 906.76 398.25 C 885.56 369.45 864.39 340.63 843.17 311.84 C 836.05 302.48 829.58 292.60 821.98 283.61 C 821.33 300.06 821.88 316.54 821.70 333.00 C 821.73 353.68 821.65 374.37 821.75 395.05 C 821.51 396.81 822.09 399.20 820.37 400.36 C 817.90 401.35 815.04 401.27 812.55 400.43 C 811.20 399.39 811.41 397.54 811.27 396.04 C 811.32 356.69 811.29 317.34 811.29 278.00 C 811.38 273.90 810.85 269.73 811.69 265.69 Z" />
<path fill="#1d1d1b" opacity="1.00" d=" M 968.40 264.45 C 975.24 263.69 982.13 264.06 989.00 264.00 C 1017.02 263.99 1045.04 264.02 1073.06 263.98 C 1074.83 264.24 1077.40 263.74 1078.35 265.71 C 1079.20 268.05 1078.34 270.54 1078.00 272.89 C 1061.63 273.79 1045.21 273.09 1028.82 273.25 C 1028.23 314.75 1028.88 356.28 1028.50 397.77 C 1028.49 401.52 1023.73 401.27 1021.13 400.88 C 1018.11 400.75 1017.99 397.32 1017.98 395.07 C 1017.94 354.46 1018.14 313.85 1017.89 273.24 C 1004.26 273.38 990.63 273.21 977.00 273.36 C 974.20 273.31 971.29 273.43 968.65 272.38 C 967.59 269.85 968.19 267.07 968.40 264.45 Z" />
<path fill="#1d1d1b" opacity="1.00" d=" M 79.88 470.83 C 83.47 460.12 96.63 453.95 107.19 457.85 C 109.94 458.89 112.38 460.55 114.85 462.11 C 114.95 460.68 115.05 459.25 115.15 457.83 C 116.42 457.81 117.70 457.80 118.98 457.81 C 119.03 461.37 119.03 464.94 118.92 468.51 C 113.39 468.44 110.46 462.73 105.23 461.71 C 96.08 458.88 85.22 464.93 83.49 474.50 C 81.08 483.93 88.27 494.40 97.99 495.33 C 105.90 496.58 114.08 491.54 116.39 483.85 C 109.67 483.38 102.93 483.59 96.21 483.72 C 96.13 482.40 96.05 481.08 95.98 479.78 C 104.40 479.45 112.83 479.52 121.25 479.74 C 121.50 486.15 121.54 492.58 121.22 499.00 C 119.91 498.96 118.61 498.93 117.30 498.90 C 117.25 496.49 117.18 494.08 117.08 491.69 C 113.93 494.39 110.88 497.47 106.85 498.85 C 98.08 501.88 87.60 498.23 82.45 490.55 C 78.68 484.83 77.57 477.33 79.88 470.83 Z" />
<path fill="#1d1d1b" opacity="1.00" d=" M 244.88 457.85 C 249.26 455.68 254.26 456.83 258.27 459.25 C 259.55 458.64 260.85 458.05 262.16 457.48 C 262.44 460.98 262.46 464.50 262.25 468.01 C 261.49 467.99 259.99 467.94 259.24 467.91 C 258.19 465.95 257.36 463.77 255.72 462.21 C 252.41 459.67 247.10 460.16 244.43 463.40 C 241.94 466.47 242.72 471.81 246.35 473.65 C 250.97 476.00 256.73 475.69 260.81 479.18 C 266.49 484.01 265.44 494.31 258.98 498.02 C 254.16 501.27 247.96 499.91 243.26 497.15 C 242.90 497.58 242.19 498.44 241.83 498.87 C 241.14 498.92 239.76 499.01 239.06 499.05 C 238.97 495.32 238.96 491.59 239.05 487.86 C 239.78 487.81 241.23 487.73 241.96 487.68 C 243.49 490.71 244.92 494.50 248.58 495.43 C 253.29 497.20 259.50 494.16 260.06 488.94 C 260.57 485.75 258.85 482.33 255.75 481.21 C 250.73 478.97 244.28 479.06 240.63 474.41 C 236.38 469.17 238.56 460.34 244.88 457.85 Z" />
<path fill="#1d1d1b" opacity="1.00" d=" M 760.36 460.31 C 768.23 454.81 779.37 455.79 786.69 461.80 C 786.78 460.48 786.89 459.16 787.01 457.85 C 788.24 457.87 789.49 457.89 790.75 457.92 C 790.75 461.36 790.75 464.79 790.70 468.23 C 785.28 468.20 782.51 462.40 777.27 461.68 C 768.62 459.17 758.67 464.47 756.26 473.21 C 753.60 481.58 758.30 491.43 766.61 494.41 C 772.94 496.78 780.45 495.07 785.09 490.13 C 786.81 488.02 789.53 487.96 792.05 487.93 C 789.31 493.14 784.68 497.40 778.93 498.97 C 769.61 502.00 758.65 497.63 753.89 489.09 C 748.52 479.68 751.25 466.39 760.36 460.31 Z" />
<path fill="#1d1d1b" opacity="1.00" d=" M 170.98 457.85 C 174.64 457.67 178.31 457.66 181.97 457.79 C 187.52 470.04 192.61 482.49 198.08 494.78 C 199.77 494.90 201.47 495.03 203.16 495.17 C 203.18 496.42 203.19 497.68 203.20 498.95 C 198.13 499.05 193.06 499.05 188.00 498.95 C 188.00 497.67 188.00 496.40 188.00 495.13 C 189.68 495.02 191.37 494.92 193.05 494.81 C 191.79 491.88 190.98 488.61 188.81 486.20 C 182.62 485.63 176.39 486.07 170.19 486.12 C 169.00 488.97 167.82 491.84 166.75 494.74 C 168.41 494.94 170.08 495.16 171.75 495.37 C 171.75 496.50 171.75 497.64 171.75 498.78 C 166.59 499.12 161.41 499.12 156.25 498.78 C 156.25 497.63 156.25 496.49 156.26 495.36 C 158.11 495.14 159.96 494.93 161.82 494.72 C 166.50 483.77 171.74 473.06 176.14 462.00 C 174.47 461.87 172.79 461.76 171.12 461.66 C 171.07 460.38 171.03 459.11 170.98 457.85 M 171.96 482.14 C 177.26 482.40 182.57 482.38 187.88 482.12 C 185.26 475.96 182.97 469.64 179.96 463.66 C 176.84 469.61 174.48 475.92 171.96 482.14 Z" />
<path fill="#1d1d1b" opacity="1.00" d=" M 300.21 457.99 C 305.21 457.54 310.23 457.57 315.23 457.90 C 315.16 459.14 315.09 460.39 315.03 461.64 C 313.36 461.75 311.70 461.87 310.04 462.00 C 312.71 471.76 315.42 481.52 318.39 491.20 C 322.31 480.26 324.61 468.81 328.06 457.71 C 329.26 457.85 330.46 458.00 331.67 458.15 C 334.83 468.98 337.21 480.06 341.00 490.70 C 344.32 481.32 346.74 471.62 349.19 461.98 C 347.49 461.86 345.80 461.76 344.11 461.66 C 344.06 460.40 344.03 459.13 343.99 457.88 C 349.00 457.59 354.01 457.59 359.02 457.87 C 358.97 459.14 358.92 460.42 358.87 461.70 C 357.22 461.74 355.57 461.79 353.93 461.84 C 350.18 474.05 346.94 486.41 343.61 498.74 C 342.05 498.88 340.49 499.01 338.94 499.14 C 335.34 488.81 333.66 477.86 329.57 467.71 C 326.38 478.01 323.71 488.46 320.77 498.84 C 319.21 498.89 317.65 498.94 316.10 498.99 C 312.29 486.65 309.16 474.11 305.05 461.87 C 303.44 461.78 301.84 461.70 300.24 461.62 C 300.23 460.41 300.22 459.20 300.21 457.99 Z" />
<path fill="#1d1d1b" opacity="1.00" d=" M 401.98 457.85 C 405.62 457.66 409.26 457.66 412.91 457.82 C 418.36 470.13 423.50 482.58 429.03 494.87 C 430.74 494.95 432.45 495.04 434.17 495.13 C 434.18 496.40 434.19 497.67 434.19 498.95 C 429.06 499.05 423.93 499.05 418.80 498.95 C 418.80 497.67 418.80 496.38 418.82 495.11 C 420.56 495.03 422.29 494.95 424.04 494.88 C 422.77 491.89 421.44 488.93 420.03 486.01 C 413.72 485.97 407.41 485.92 401.11 486.10 C 399.86 488.95 398.68 491.83 397.62 494.76 C 399.14 494.90 400.67 495.04 402.20 495.19 C 402.20 496.44 402.19 497.69 402.19 498.95 C 397.20 499.08 392.22 499.08 387.24 498.78 C 387.25 497.64 387.26 496.51 387.27 495.38 C 389.07 495.13 390.88 494.89 392.70 494.64 C 397.43 483.74 402.50 472.99 407.07 462.02 C 405.42 461.88 403.77 461.76 402.13 461.65 C 402.07 460.38 402.02 459.11 401.98 457.85 M 402.89 482.09 C 408.06 482.42 413.25 482.42 418.43 482.09 C 416.34 475.75 413.69 469.62 410.81 463.61 C 407.71 469.56 405.32 475.84 402.89 482.09 Z" />
<path fill="#1d1d1b" opacity="1.00" d=" M 469.27 458.10 C 475.16 457.50 481.09 457.62 487.00 457.70 C 490.18 457.82 493.55 457.99 496.36 459.67 C 503.66 463.92 504.75 475.80 498.15 481.16 C 496.05 482.86 493.38 483.55 490.89 484.48 C 493.28 487.88 495.45 491.52 498.52 494.36 C 500.33 495.00 502.27 495.04 504.17 495.31 C 504.18 496.54 504.19 497.77 504.21 499.02 C 500.89 498.68 496.27 500.29 494.21 496.79 C 490.65 491.78 487.10 486.77 483.53 481.77 C 487.69 480.93 492.78 481.33 495.79 477.79 C 499.88 473.46 498.56 465.43 493.13 462.87 C 488.66 461.11 483.72 461.76 479.03 461.81 C 478.96 472.83 478.99 483.86 479.02 494.88 C 480.67 494.96 482.33 495.03 484.00 495.12 C 483.99 496.39 484.00 497.67 484.00 498.95 C 479.08 499.08 474.15 499.08 469.24 498.78 C 469.25 497.63 469.26 496.49 469.27 495.35 C 471.09 495.13 472.92 494.93 474.75 494.73 C 474.67 483.84 474.70 472.94 474.73 462.05 C 472.91 461.87 471.09 461.70 469.28 461.54 C 469.27 460.39 469.27 459.24 469.27 458.10 Z" />
<path fill="#1d1d1b" opacity="1.00" d=" M 540.22 457.95 C 543.42 457.71 546.64 457.67 549.86 457.80 C 558.01 468.88 565.51 480.43 574.01 491.24 C 574.54 481.49 574.34 471.70 574.15 461.93 C 572.46 461.84 570.79 461.75 569.12 461.67 C 569.07 460.40 569.02 459.14 568.98 457.89 C 573.91 457.57 578.86 457.55 583.78 457.99 C 583.77 459.19 583.78 460.39 583.79 461.60 C 582.11 461.71 580.43 461.82 578.77 461.95 C 578.40 474.23 578.62 486.53 578.69 498.82 C 577.16 498.89 575.64 498.96 574.13 499.03 C 565.88 488.11 558.44 476.60 549.99 465.84 C 549.44 475.50 549.68 485.20 549.83 494.87 C 551.55 494.95 553.27 495.03 555.01 495.13 C 555.00 496.40 554.99 497.67 555.00 498.95 C 550.06 499.07 545.13 499.06 540.20 498.85 C 540.18 497.65 540.18 496.46 540.18 495.27 C 541.86 495.11 543.54 494.96 545.23 494.82 C 545.52 483.87 545.52 472.90 545.23 461.95 C 543.55 461.82 541.88 461.71 540.22 461.59 C 540.21 460.37 540.21 459.16 540.22 457.95 Z" />
<path fill="#1d1d1b" opacity="1.00" d=" M 620.03 457.83 C 629.74 457.61 639.46 457.60 649.18 457.84 C 649.34 461.57 649.34 465.30 649.14 469.04 C 647.87 468.95 646.61 468.87 645.36 468.79 C 645.34 466.45 645.30 464.12 645.25 461.79 C 642.44 461.75 639.64 461.75 636.84 461.78 C 636.61 472.81 636.61 483.84 636.83 494.87 C 638.55 494.95 640.27 495.03 642.01 495.12 C 642.00 496.39 641.99 497.67 642.00 498.95 C 637.06 499.07 632.12 499.06 627.19 498.85 C 627.18 497.65 627.18 496.45 627.18 495.27 C 628.86 495.11 630.54 494.96 632.23 494.82 C 632.54 483.81 632.48 472.79 632.26 461.78 C 629.45 461.75 626.66 461.75 623.86 461.78 C 623.79 464.14 623.73 466.51 623.69 468.87 C 622.47 468.92 621.26 468.97 620.06 469.03 C 619.96 465.29 619.96 461.56 620.03 457.83 Z" />
<path fill="#1d1d1b" opacity="1.00" d=" M 684.99 457.87 C 694.72 457.57 704.46 457.62 714.19 457.84 C 714.35 461.48 714.32 465.14 714.08 468.79 C 712.71 468.78 711.34 468.77 709.99 468.78 C 709.85 466.49 709.73 464.21 709.62 461.93 C 704.70 461.58 699.77 461.59 694.85 461.85 C 694.57 466.79 694.56 471.76 695.03 476.69 C 700.10 476.55 705.18 476.55 710.25 476.72 C 710.26 477.54 710.26 479.17 710.27 479.99 C 705.12 479.99 699.98 480.00 694.84 480.03 C 694.61 485.00 694.61 489.98 694.83 494.96 C 699.77 495.06 704.71 495.05 709.65 494.89 C 709.74 492.66 709.85 490.44 709.97 488.23 C 711.33 488.21 712.70 488.21 714.08 488.20 C 714.31 491.78 714.35 495.38 714.21 498.97 C 704.47 499.01 694.73 499.04 685.00 498.96 C 684.99 497.67 684.99 496.39 684.99 495.12 C 686.71 495.03 688.44 494.95 690.17 494.87 C 690.37 483.90 690.42 472.91 690.15 461.93 C 688.46 461.83 686.78 461.75 685.11 461.67 C 685.06 460.40 685.02 459.13 684.99 457.87 Z" />
<path fill="#1d1d1b" opacity="1.00" d=" M 827.77 457.90 C 832.77 457.55 837.81 457.52 842.80 458.12 C 842.69 459.20 842.60 460.28 842.51 461.37 C 840.76 461.62 839.02 461.87 837.29 462.13 C 837.26 466.98 837.27 471.83 837.30 476.68 C 843.89 476.57 850.49 476.57 857.08 476.68 C 857.57 471.78 857.53 466.85 857.22 461.95 C 855.54 461.83 853.87 461.71 852.21 461.60 C 852.21 460.39 852.21 459.19 852.22 457.99 C 857.14 457.55 862.08 457.57 867.01 457.88 C 866.96 459.14 866.92 460.40 866.89 461.67 C 865.20 461.75 863.52 461.83 861.85 461.93 C 861.58 472.90 861.63 483.89 861.83 494.87 C 863.54 494.95 865.27 495.03 867.01 495.13 C 866.99 496.40 866.99 497.67 867.00 498.96 C 862.06 499.07 857.12 499.06 852.19 498.85 C 852.18 497.65 852.17 496.46 852.18 495.27 C 853.85 495.11 855.53 494.96 857.22 494.82 C 857.50 489.90 857.50 484.96 857.25 480.04 C 850.58 479.96 843.91 479.92 837.25 480.11 C 837.28 484.98 837.28 489.86 837.25 494.73 C 839.07 494.93 840.90 495.13 842.73 495.35 C 842.73 496.49 842.74 497.63 842.76 498.78 C 837.78 499.08 832.79 499.08 827.81 498.95 C 827.80 497.67 827.80 496.39 827.81 495.12 C 829.53 495.03 831.25 494.96 832.99 494.88 C 832.99 483.90 833.06 472.91 832.95 461.93 C 831.28 461.83 829.62 461.74 827.97 461.65 C 827.89 460.40 827.82 459.14 827.77 457.90 Z" />
<path fill="#1d1d1b" opacity="1.00" d=" M 902.99 457.82 C 906.25 457.68 909.53 457.69 912.80 457.88 C 920.78 469.05 928.45 480.46 936.87 491.31 C 937.13 481.52 936.99 471.72 936.95 461.93 C 935.28 461.83 933.61 461.74 931.96 461.65 C 931.89 460.39 931.82 459.14 931.77 457.90 C 936.77 457.57 941.78 457.54 946.78 457.99 C 946.77 459.19 946.77 460.39 946.78 461.60 C 945.10 461.71 943.42 461.83 941.77 461.95 C 941.40 474.30 941.62 486.67 941.68 499.02 C 939.63 498.76 936.89 499.47 935.63 497.35 C 927.81 486.62 920.35 475.61 912.33 465.02 C 912.42 474.92 912.47 484.83 912.30 494.73 C 914.19 494.87 916.09 495.00 918.00 495.15 C 917.99 496.41 917.99 497.68 918.00 498.95 C 913.00 499.04 908.00 499.04 903.00 498.96 C 902.99 497.67 902.98 496.39 902.99 495.12 C 904.71 495.03 906.43 494.95 908.18 494.87 C 908.37 483.90 908.41 472.91 908.14 461.93 C 906.45 461.84 904.78 461.75 903.11 461.67 C 903.06 460.38 903.02 459.10 902.99 457.82 Z" />
<path fill="#1d1d1b" opacity="1.00" d=" M 982.99 457.88 C 987.91 457.57 992.86 457.55 997.78 457.99 C 997.77 459.19 997.77 460.39 997.78 461.60 C 996.10 461.71 994.42 461.83 992.76 461.96 C 992.48 472.91 992.48 483.87 992.77 494.82 C 994.44 494.96 996.13 495.12 997.82 495.28 C 997.81 496.46 997.80 497.65 997.80 498.85 C 992.87 499.06 987.93 499.07 983.00 498.95 C 982.99 497.67 982.98 496.39 982.99 495.12 C 984.71 495.03 986.44 494.95 988.18 494.87 C 988.37 483.89 988.41 472.91 988.15 461.93 C 986.45 461.83 984.78 461.75 983.11 461.67 C 983.06 460.40 983.02 459.14 982.99 457.88 Z" />
<path fill="#1d1d1b" opacity="1.00" d=" M 1033.99 457.88 C 1038.99 457.59 1044.00 457.59 1049.01 457.88 C 1048.96 459.13 1048.91 460.40 1048.89 461.67 C 1047.20 461.75 1045.52 461.84 1043.86 461.93 C 1043.61 466.67 1043.58 471.42 1043.93 476.15 C 1049.23 471.79 1054.33 467.19 1059.21 462.36 C 1057.98 461.92 1056.76 461.46 1055.56 460.99 C 1055.65 460.21 1055.82 458.65 1055.91 457.87 C 1060.86 457.59 1065.84 457.54 1070.79 458.00 C 1070.77 459.13 1070.75 460.27 1070.76 461.41 C 1064.93 461.12 1061.39 466.01 1057.43 469.41 C 1054.37 472.06 1051.33 474.74 1048.64 477.77 C 1054.07 482.86 1059.43 488.03 1064.87 493.11 C 1066.68 494.95 1069.39 494.97 1071.78 495.47 C 1071.78 496.59 1071.80 497.71 1071.82 498.84 C 1066.63 499.11 1061.42 499.12 1056.24 498.78 C 1056.24 497.67 1056.25 496.56 1056.27 495.46 C 1057.58 495.17 1058.89 494.89 1060.23 494.62 C 1055.10 489.10 1049.41 484.15 1043.94 478.98 C 1043.58 484.27 1043.60 489.57 1043.83 494.87 C 1045.54 494.95 1047.27 495.03 1049.01 495.12 C 1048.99 496.39 1048.99 497.67 1049.00 498.95 C 1043.99 499.05 1039.00 499.05 1034.00 498.95 C 1033.99 497.67 1033.98 496.39 1033.99 495.12 C 1035.71 495.03 1037.43 494.95 1039.18 494.87 C 1039.36 483.89 1039.42 472.91 1039.15 461.93 C 1037.45 461.84 1035.78 461.75 1034.11 461.67 C 1034.06 460.40 1034.02 459.14 1033.99 457.88 Z" />
</g>
</svg>
